<?xml version="1.0" encoding="UTF-8" standalone="no"?>
<svg
   xmlns:dc="http://purl.org/dc/elements/1.1/"
   xmlns:cc="http://creativecommons.org/ns#"
   xmlns:rdf="http://www.w3.org/1999/02/22-rdf-syntax-ns#"
   xmlns:svg="http://www.w3.org/2000/svg"
   xmlns="http://www.w3.org/2000/svg"
   xmlns:sodipodi="http://sodipodi.sourceforge.net/DTD/sodipodi-0.dtd"
   xmlns:inkscape="http://www.inkscape.org/namespaces/inkscape"
   version="1.2"
   id="Layer_1"
   x="0px"
   y="0px"
   viewBox="0 0 99.999996 27.937659"
   xml:space="preserve"
   sodipodi:docname="Open-source-hardware-logo.svg"
   width="100"
   height="27.937658"
   inkscape:version="0.92.5 (2060ec1f9f, 2020-04-08)"><metadata
   id="metadata43"><rdf:RDF><cc:Work
       rdf:about=""><dc:format>image/svg+xml</dc:format><dc:type
         rdf:resource="http://purl.org/dc/dcmitype/StillImage" /><dc:title></dc:title></cc:Work></rdf:RDF></metadata><defs
   id="defs41" /><sodipodi:namedview
   pagecolor="#ffffff"
   bordercolor="#666666"
   borderopacity="1"
   objecttolerance="10"
   gridtolerance="10"
   guidetolerance="10"
   inkscape:pageopacity="0"
   inkscape:pageshadow="2"
   inkscape:window-width="1920"
   inkscape:window-height="1056"
   id="namedview39"
   showgrid="false"
   fit-margin-top="0"
   fit-margin-left="0"
   fit-margin-right="0"
   fit-margin-bottom="0"
   inkscape:zoom="6.298494"
   inkscape:cx="29.034457"
   inkscape:cy="-13.324043"
   inkscape:window-x="1920"
   inkscape:window-y="0"
   inkscape:window-maximized="1"
   inkscape:current-layer="Layer_1" />
<path
   d="m -19.618271,27.64315 -3.810964,-0.70869 c -0.09273,-0.0174 -0.194269,-0.10455 -0.225565,-0.19403 l -1.168164,-2.72533 c -0.04358,-0.0842 -0.03524,-0.21629 0.01855,-0.29465 l 2.220416,-3.236271 c 0.05309,-0.07789 0.04265,-0.196356 -0.02434,-0.263353 l -2.773317,-2.773317 c -0.067,-0.067 -0.185228,-0.07789 -0.263121,-0.02434 l -3.293067,2.259826 c -0.07789,0.05355 -0.211424,0.06306 -0.29604,0.02133 l -2.641873,-1.081462 c -0.08972,-0.02967 -0.177114,-0.130053 -0.194732,-0.223015 l -0.733731,-3.941716 c -0.01715,-0.09296 -0.108726,-0.169001 -0.20331,-0.169001 h -3.922472 c -0.09435,0 -0.185923,0.07604 -0.203078,0.169001 l -0.733493,3.941712 c -0.01762,0.09296 -0.104784,0.193342 -0.194732,0.223015 l -2.642105,1.081462 c -0.08485,0.04173 -0.218379,0.03222 -0.29604,-0.02133 l -3.292836,-2.259824 c -0.07813,-0.05355 -0.196587,-0.04266 -0.263353,0.02434 l -2.773548,2.773317 c -0.06677,0.067 -0.07789,0.18546 -0.02434,0.263353 l 2.220647,3.236273 c 0.05332,0.0784 0.06166,0.2105 0.01831,0.29465 l -1.168396,2.72533 c -0.03107,0.0895 -0.132372,0.17665 -0.225565,0.19403 l -3.810732,0.70869 c -0.09319,0.01762 -0.168999,0.10896 -0.168999,0.20354 l 2.31e-4,3.92224 c 0,0.0946 0.07604,0.18662 0.169,0.20355 l 3.717307,0.69176 c 0.09296,0.0169 0.192414,0.10525 0.220697,0.19543 l 1.160514,2.89896 c 0.0415,0.0851 0.03176,0.21815 -0.02202,0.29604 l -2.111458,3.07701 c -0.05332,0.0779 -0.04242,0.19659 0.02434,0.26359 l 2.77378,2.77331 c 0.06677,0.0665 0.185228,0.0774 0.263353,0.0243 l 3.022528,-2.07459 c 0.07789,-0.0533 0.208411,-0.0575 0.289781,-0.01 l 1.332992,0.7117 c 0.08438,0.0431 0.18291,0.007 0.219074,-0.0807 l 2.748512,-6.64107 c 0.0364,-0.0874 0,-0.19891 -0.08067,-0.24829 l -0.333595,-0.20423 c -0.06167,-0.0376 -0.145354,-0.10224 -0.210961,-0.16159 -1.203401,-0.77058 -2.001805,-2.11864 -2.001805,-3.65378 0,-2.39568 1.942226,-4.33767 4.337669,-4.33767 2.395443,0 4.337438,1.94199 4.337438,4.33767 0,1.53514 -0.798172,2.8832 -2.001805,3.65378 -0.06514,0.0593 -0.149064,0.12403 -0.210497,0.16159 l -0.333596,0.20423 c -0.08021,0.0494 -0.116839,0.16089 -0.08067,0.24829 l 2.74828,6.64131 c 0.03617,0.0874 0.134459,0.12356 0.219075,0.0807 l 1.332991,-0.7117 c 0.0816,-0.0475 0.211887,-0.0436 0.28978,0.01 l 3.022761,2.0746 c 0.07789,0.0531 0.196587,0.0422 0.26312,-0.0244 l 2.773781,-2.77331 c 0.067,-0.067 0.07789,-0.18569 0.02434,-0.26359 l -2.11169,-3.077 c -0.05332,-0.0779 -0.06329,-0.21096 -0.02179,-0.29604 l 1.160514,-2.89897 c 0.02851,-0.0902 0.127272,-0.1785 0.220465,-0.19543 l 3.717307,-0.69176 c 0.09273,-0.0169 0.169,-0.10896 0.169,-0.20354 l 4.64e-4,-3.92224 c 2.31e-4,-0.0948 -0.07581,-0.18616 -0.168537,-0.20378"
   id="path2"
   inkscape:connector-curvature="0"
   style="fill:#0099b0;stroke-width:0.23182455" />

















<g
   aria-label="USER SERVICEABLE PARTS INSIDE"
   transform="matrix(0.74442319,0,0,0.90218716,-41.687142,19.468753)"
   style="font-style:normal;font-variant:normal;font-weight:normal;font-stretch:normal;font-size:8px;line-height:125%;font-family:Sans;-inkscape-font-specification:'Sans, Normal';font-variant-ligatures:normal;font-variant-caps:normal;font-variant-numeric:normal;font-feature-settings:normal;text-align:start;letter-spacing:0px;word-spacing:0px;writing-mode:lr-tb;text-anchor:start;fill:#000000;fill-opacity:1;stroke:none;stroke-width:1px;stroke-linecap:butt;stroke-linejoin:miter;stroke-opacity:1"
   id="flowRoot848"><path
     d="m 32.388672,2.2324219 h 1.503906 v 3.4960937 q 0,0.7226563 0.234375,1.0351563 0.238281,0.3085937 0.773438,0.3085937 0.539062,0 0.773437,-0.3085937 0.238281,-0.3125 0.238281,-1.0351563 V 2.2324219 h 1.503907 v 3.4960937 q 0,1.2382813 -0.621094,1.84375 -0.621094,0.6054688 -1.894531,0.6054688 -1.269532,0 -1.890625,-0.6054688 -0.621094,-0.6054687 -0.621094,-1.84375 z"
     style="font-style:normal;font-variant:normal;font-weight:bold;font-stretch:normal;font-size:8px;line-height:6.65196848px;font-family:Sans;-inkscape-font-specification:'Sans, Bold';font-variant-ligatures:normal;font-variant-caps:normal;font-variant-numeric:normal;font-feature-settings:normal;text-align:center;writing-mode:lr-tb;text-anchor:middle"
     id="path878"
     inkscape:connector-curvature="0" /><path
     d="m 42.943359,2.4160156 v 1.234375 q -0.480468,-0.2148437 -0.9375,-0.3242187 -0.457031,-0.109375 -0.863281,-0.109375 -0.539062,0 -0.796875,0.1484375 -0.257812,0.1484375 -0.257812,0.4609375 0,0.234375 0.171875,0.3671875 0.175781,0.1289062 0.632812,0.2226562 l 0.640625,0.1289063 q 0.972656,0.1953125 1.382813,0.59375 0.410156,0.3984375 0.410156,1.1328125 0,0.9648437 -0.574219,1.4375 -0.570312,0.46875 -1.746094,0.46875 -0.554687,0 -1.113281,-0.1054688 -0.558594,-0.1054687 -1.117187,-0.3125 V 6.4902344 q 0.558593,0.296875 1.078125,0.4492187 0.523437,0.1484375 1.007812,0.1484375 0.492188,0 0.753906,-0.1640625 0.261719,-0.1640625 0.261719,-0.46875 0,-0.2734375 -0.179687,-0.421875 -0.175782,-0.1484375 -0.707032,-0.265625 L 40.408203,5.6386719 q -0.875,-0.1875 -1.28125,-0.5976563 -0.402344,-0.4101562 -0.402344,-1.1054687 0,-0.8710938 0.5625,-1.3398438 0.5625,-0.46875 1.617188,-0.46875 0.480469,0 0.988281,0.074219 0.507813,0.070312 1.050781,0.2148435 z"
     style="font-style:normal;font-variant:normal;font-weight:bold;font-stretch:normal;font-size:8px;line-height:6.65196848px;font-family:Sans;-inkscape-font-specification:'Sans, Bold';font-variant-ligatures:normal;font-variant-caps:normal;font-variant-numeric:normal;font-feature-settings:normal;text-align:center;writing-mode:lr-tb;text-anchor:middle"
     id="path880"
     inkscape:connector-curvature="0" /><path
     d="m 44.646484,2.2324219 h 4.058594 v 1.1367187 h -2.554687 v 1.0859375 h 2.402343 v 1.1367188 h -2.402343 v 1.3359375 h 2.640625 v 1.1367187 h -4.144532 z"
     style="font-style:normal;font-variant:normal;font-weight:bold;font-stretch:normal;font-size:8px;line-height:6.65196848px;font-family:Sans;-inkscape-font-specification:'Sans, Bold';font-variant-ligatures:normal;font-variant-caps:normal;font-variant-numeric:normal;font-feature-settings:normal;text-align:center;writing-mode:lr-tb;text-anchor:middle"
     id="path882"
     inkscape:connector-curvature="0" /><path
     d="m 52.248047,4.8183594 q 0.472656,0 0.675781,-0.1757813 0.207031,-0.1757812 0.207031,-0.578125 0,-0.3984375 -0.207031,-0.5703125 -0.203125,-0.171875 -0.675781,-0.171875 H 51.615234 V 4.8183594 Z M 51.615234,5.8574219 V 8.0644531 H 50.111328 V 2.2324219 h 2.296875 q 1.152344,0 1.6875,0.3867187 0.539063,0.3867188 0.539063,1.2226563 0,0.578125 -0.28125,0.9492187 -0.277344,0.3710938 -0.839844,0.546875 0.308594,0.070312 0.550781,0.3203125 0.246094,0.2460938 0.496094,0.75 l 0.816406,1.65625 H 53.775391 L 53.064453,6.6152344 q -0.214844,-0.4375 -0.4375,-0.5976563 -0.21875,-0.1601562 -0.585937,-0.1601562 z"
     style="font-style:normal;font-variant:normal;font-weight:bold;font-stretch:normal;font-size:8px;line-height:6.65196848px;font-family:Sans;-inkscape-font-specification:'Sans, Bold';font-variant-ligatures:normal;font-variant-caps:normal;font-variant-numeric:normal;font-feature-settings:normal;text-align:center;writing-mode:lr-tb;text-anchor:middle"
     id="path884"
     inkscape:connector-curvature="0" /><path
     d="m 63.115234,2.4160156 v 1.234375 q -0.480468,-0.2148437 -0.9375,-0.3242187 -0.457031,-0.109375 -0.863281,-0.109375 -0.539062,0 -0.796875,0.1484375 -0.257812,0.1484375 -0.257812,0.4609375 0,0.234375 0.171875,0.3671875 0.175781,0.1289062 0.632812,0.2226562 l 0.640625,0.1289063 q 0.972656,0.1953125 1.382813,0.59375 0.410156,0.3984375 0.410156,1.1328125 0,0.9648437 -0.574219,1.4375 -0.570312,0.46875 -1.746094,0.46875 -0.554687,0 -1.113281,-0.1054688 -0.558594,-0.1054687 -1.117187,-0.3125 V 6.4902344 q 0.558593,0.296875 1.078125,0.4492187 0.523437,0.1484375 1.007812,0.1484375 0.492188,0 0.753906,-0.1640625 0.261719,-0.1640625 0.261719,-0.46875 0,-0.2734375 -0.179687,-0.421875 -0.175782,-0.1484375 -0.707032,-0.265625 L 60.580078,5.6386719 q -0.875,-0.1875 -1.28125,-0.5976563 -0.402344,-0.4101562 -0.402344,-1.1054687 0,-0.8710938 0.5625,-1.3398438 0.5625,-0.46875 1.617188,-0.46875 0.480469,0 0.988281,0.074219 0.507813,0.070312 1.050781,0.2148435 z"
     style="font-style:normal;font-variant:normal;font-weight:bold;font-stretch:normal;font-size:8px;line-height:6.65196848px;font-family:Sans;-inkscape-font-specification:'Sans, Bold';font-variant-ligatures:normal;font-variant-caps:normal;font-variant-numeric:normal;font-feature-settings:normal;text-align:center;writing-mode:lr-tb;text-anchor:middle"
     id="path886"
     inkscape:connector-curvature="0" /><path
     d="m 64.818359,2.2324219 h 4.058594 v 1.1367187 h -2.554687 v 1.0859375 h 2.402343 v 1.1367188 h -2.402343 v 1.3359375 h 2.640625 v 1.1367187 h -4.144532 z"
     style="font-style:normal;font-variant:normal;font-weight:bold;font-stretch:normal;font-size:8px;line-height:6.65196848px;font-family:Sans;-inkscape-font-specification:'Sans, Bold';font-variant-ligatures:normal;font-variant-caps:normal;font-variant-numeric:normal;font-feature-settings:normal;text-align:center;writing-mode:lr-tb;text-anchor:middle"
     id="path888"
     inkscape:connector-curvature="0" /><path
     d="m 72.419922,4.8183594 q 0.472656,0 0.675781,-0.1757813 0.207031,-0.1757812 0.207031,-0.578125 0,-0.3984375 -0.207031,-0.5703125 -0.203125,-0.171875 -0.675781,-0.171875 H 71.787109 V 4.8183594 Z M 71.787109,5.8574219 V 8.0644531 H 70.283203 V 2.2324219 h 2.296875 q 1.152344,0 1.6875,0.3867187 0.539063,0.3867188 0.539063,1.2226563 0,0.578125 -0.28125,0.9492187 -0.277344,0.3710938 -0.839844,0.546875 0.308594,0.070312 0.550781,0.3203125 0.246094,0.2460938 0.496094,0.75 l 0.816406,1.65625 H 73.947266 L 73.236328,6.6152344 q -0.214844,-0.4375 -0.4375,-0.5976563 -0.21875,-0.1601562 -0.585937,-0.1601562 z"
     style="font-style:normal;font-variant:normal;font-weight:bold;font-stretch:normal;font-size:8px;line-height:6.65196848px;font-family:Sans;-inkscape-font-specification:'Sans, Bold';font-variant-ligatures:normal;font-variant-caps:normal;font-variant-numeric:normal;font-feature-settings:normal;text-align:center;writing-mode:lr-tb;text-anchor:middle"
     id="path890"
     inkscape:connector-curvature="0" /><path
     d="m 75.748047,2.2324219 h 1.511719 l 1.546875,4.3046875 1.542968,-4.3046875 h 1.511719 l -2.160156,5.8320312 h -1.792969 z"
     style="font-style:normal;font-variant:normal;font-weight:bold;font-stretch:normal;font-size:8px;line-height:6.65196848px;font-family:Sans;-inkscape-font-specification:'Sans, Bold';font-variant-ligatures:normal;font-variant-caps:normal;font-variant-numeric:normal;font-feature-settings:normal;text-align:center;writing-mode:lr-tb;text-anchor:middle"
     id="path892"
     inkscape:connector-curvature="0" /><path
     d="m 82.634766,2.2324219 h 1.503906 v 5.8320312 h -1.503906 z"
     style="font-style:normal;font-variant:normal;font-weight:bold;font-stretch:normal;font-size:8px;line-height:6.65196848px;font-family:Sans;-inkscape-font-specification:'Sans, Bold';font-variant-ligatures:normal;font-variant-caps:normal;font-variant-numeric:normal;font-feature-settings:normal;text-align:center;writing-mode:lr-tb;text-anchor:middle"
     id="path894"
     inkscape:connector-curvature="0" /><path
     d="m 90.236328,7.7441406 q -0.414062,0.2148438 -0.863281,0.3242188 -0.449219,0.109375 -0.9375,0.109375 -1.457031,0 -2.308594,-0.8125 -0.851562,-0.8164063 -0.851562,-2.2109375 0,-1.3984375 0.851562,-2.2109375 0.851563,-0.8164063 2.308594,-0.8164063 0.488281,0 0.9375,0.109375 0.449219,0.109375 0.863281,0.3242188 V 3.7675781 Q 89.818359,3.4824219 89.412109,3.3496094 89.005859,3.2167969 88.556641,3.2167969 q -0.804688,0 -1.265625,0.515625 -0.460938,0.515625 -0.460938,1.421875 0,0.9023437 0.460938,1.4179687 0.460937,0.515625 1.265625,0.515625 0.449218,0 0.855468,-0.1328125 0.40625,-0.1328125 0.824219,-0.4179687 z"
     style="font-style:normal;font-variant:normal;font-weight:bold;font-stretch:normal;font-size:8px;line-height:6.65196848px;font-family:Sans;-inkscape-font-specification:'Sans, Bold';font-variant-ligatures:normal;font-variant-caps:normal;font-variant-numeric:normal;font-feature-settings:normal;text-align:center;writing-mode:lr-tb;text-anchor:middle"
     id="path896"
     inkscape:connector-curvature="0" /><path
     d="m 91.482422,2.2324219 h 4.058594 v 1.1367187 h -2.554688 v 1.0859375 h 2.402344 v 1.1367188 h -2.402344 v 1.3359375 h 2.640625 v 1.1367187 h -4.144531 z"
     style="font-style:normal;font-variant:normal;font-weight:bold;font-stretch:normal;font-size:8px;line-height:6.65196848px;font-family:Sans;-inkscape-font-specification:'Sans, Bold';font-variant-ligatures:normal;font-variant-caps:normal;font-variant-numeric:normal;font-feature-settings:normal;text-align:center;writing-mode:lr-tb;text-anchor:middle"
     id="path898"
     inkscape:connector-curvature="0" /><path
     d="m 100.48633,7.0019531 h -2.351564 l -0.371094,1.0625 h -1.511719 l 2.160156,-5.8320312 h 1.792971 l 2.16015,5.8320312 h -1.51171 z M 98.509766,5.9199219 h 1.597654 L 99.310547,3.5996094 Z"
     style="font-style:normal;font-variant:normal;font-weight:bold;font-stretch:normal;font-size:8px;line-height:6.65196848px;font-family:Sans;-inkscape-font-specification:'Sans, Bold';font-variant-ligatures:normal;font-variant-caps:normal;font-variant-numeric:normal;font-feature-settings:normal;text-align:center;writing-mode:lr-tb;text-anchor:middle"
     id="path900"
     inkscape:connector-curvature="0" /><path
     d="m 105.47461,4.4902344 q 0.35547,0 0.53906,-0.15625 0.1836,-0.15625 0.1836,-0.4609375 0,-0.3007813 -0.1836,-0.4570313 -0.18359,-0.1601562 -0.53906,-0.1601562 h -0.83203 v 1.234375 z m 0.0508,2.5507812 q 0.45313,0 0.67969,-0.1914062 0.23047,-0.1914063 0.23047,-0.578125 0,-0.3789063 -0.22657,-0.5664063 -0.22656,-0.1914062 -0.68359,-0.1914062 h -0.88281 v 1.5273437 z m 1.39844,-2.0976562 q 0.48437,0.140625 0.75,0.5195312 0.26562,0.3789063 0.26562,0.9296875 0,0.84375 -0.57031,1.2578125 -0.57031,0.4140625 -1.73437,0.4140625 h -2.4961 V 2.2324219 h 2.25781 q 1.21485,0 1.75782,0.3671875 0.54687,0.3671875 0.54687,1.1757812 0,0.4257813 -0.19922,0.7265625 -0.19922,0.296875 -0.57812,0.4414063 z"
     style="font-style:normal;font-variant:normal;font-weight:bold;font-stretch:normal;font-size:8px;line-height:6.65196848px;font-family:Sans;-inkscape-font-specification:'Sans, Bold';font-variant-ligatures:normal;font-variant-caps:normal;font-variant-numeric:normal;font-feature-settings:normal;text-align:center;writing-mode:lr-tb;text-anchor:middle"
     id="path902"
     inkscape:connector-curvature="0" /><path
     d="m 109.23633,2.2324219 h 1.5039 v 4.6953125 h 2.64063 v 1.1367187 h -4.14453 z"
     style="font-style:normal;font-variant:normal;font-weight:bold;font-stretch:normal;font-size:8px;line-height:6.65196848px;font-family:Sans;-inkscape-font-specification:'Sans, Bold';font-variant-ligatures:normal;font-variant-caps:normal;font-variant-numeric:normal;font-feature-settings:normal;text-align:center;writing-mode:lr-tb;text-anchor:middle"
     id="path904"
     inkscape:connector-curvature="0" /><path
     d="m 114.33398,2.2324219 h 4.0586 v 1.1367187 h -2.55469 v 1.0859375 h 2.40234 v 1.1367188 h -2.40234 v 1.3359375 h 2.64063 v 1.1367187 h -4.14454 z"
     style="font-style:normal;font-variant:normal;font-weight:bold;font-stretch:normal;font-size:8px;line-height:6.65196848px;font-family:Sans;-inkscape-font-specification:'Sans, Bold';font-variant-ligatures:normal;font-variant-caps:normal;font-variant-numeric:normal;font-feature-settings:normal;text-align:center;writing-mode:lr-tb;text-anchor:middle"
     id="path906"
     inkscape:connector-curvature="0" /><path
     d="m 45.273437,12.232422 h 2.496094 q 1.113281,0 1.707031,0.496094 0.597657,0.492187 0.597657,1.40625 0,0.917968 -0.597657,1.414062 -0.59375,0.492188 -1.707031,0.492188 h -0.992187 v 2.023437 h -1.503907 z m 1.503907,1.089844 v 1.628906 h 0.832031 q 0.4375,0 0.675781,-0.210938 0.238281,-0.214843 0.238281,-0.605468 0,-0.390625 -0.238281,-0.601563 -0.238281,-0.210937 -0.675781,-0.210937 z"
     style="font-style:normal;font-variant:normal;font-weight:bold;font-stretch:normal;font-size:8px;line-height:6.65196848px;font-family:Sans;-inkscape-font-specification:'Sans, Bold';font-variant-ligatures:normal;font-variant-caps:normal;font-variant-numeric:normal;font-feature-settings:normal;text-align:center;writing-mode:lr-tb;text-anchor:middle"
     id="path908"
     inkscape:connector-curvature="0" /><path
     d="m 53.941406,17.001953 h -2.351562 l -0.371094,1.0625 h -1.511719 l 2.160156,-5.832031 h 1.792969 l 2.160156,5.832031 H 54.308594 Z M 51.964844,15.919922 H 53.5625 l -0.796875,-2.320313 z"
     style="font-style:normal;font-variant:normal;font-weight:bold;font-stretch:normal;font-size:8px;line-height:6.65196848px;font-family:Sans;-inkscape-font-specification:'Sans, Bold';font-variant-ligatures:normal;font-variant-caps:normal;font-variant-numeric:normal;font-feature-settings:normal;text-align:center;writing-mode:lr-tb;text-anchor:middle"
     id="path910"
     inkscape:connector-curvature="0" /><path
     d="m 58.730469,14.818359 q 0.472656,0 0.675781,-0.175781 0.207031,-0.175781 0.207031,-0.578125 0,-0.398437 -0.207031,-0.570312 -0.203125,-0.171875 -0.675781,-0.171875 h -0.632813 v 1.496093 z m -0.632813,1.039063 v 2.207031 H 56.59375 v -5.832031 h 2.296875 q 1.152344,0 1.6875,0.386719 0.539062,0.386718 0.539062,1.222656 0,0.578125 -0.28125,0.949219 -0.277343,0.371093 -0.839843,0.546875 0.308593,0.07031 0.550781,0.320312 0.246094,0.246094 0.496094,0.75 l 0.816406,1.65625 h -1.601563 l -0.710937,-1.449219 q -0.214844,-0.4375 -0.4375,-0.597656 -0.21875,-0.160156 -0.585938,-0.160156 z"
     style="font-style:normal;font-variant:normal;font-weight:bold;font-stretch:normal;font-size:8px;line-height:6.65196848px;font-family:Sans;-inkscape-font-specification:'Sans, Bold';font-variant-ligatures:normal;font-variant-caps:normal;font-variant-numeric:normal;font-feature-settings:normal;text-align:center;writing-mode:lr-tb;text-anchor:middle"
     id="path912"
     inkscape:connector-curvature="0" /><path
     d="m 61.699219,12.232422 h 5.375 v 1.136719 h -1.933594 v 4.695312 h -1.503906 v -4.695312 h -1.9375 z"
     style="font-style:normal;font-variant:normal;font-weight:bold;font-stretch:normal;font-size:8px;line-height:6.65196848px;font-family:Sans;-inkscape-font-specification:'Sans, Bold';font-variant-ligatures:normal;font-variant-caps:normal;font-variant-numeric:normal;font-feature-settings:normal;text-align:center;writing-mode:lr-tb;text-anchor:middle"
     id="path914"
     inkscape:connector-curvature="0" /><path
     d="m 71.910156,12.416016 v 1.234375 q -0.480469,-0.214844 -0.9375,-0.324219 -0.457031,-0.109375 -0.863281,-0.109375 -0.539063,0 -0.796875,0.148437 -0.257813,0.148438 -0.257813,0.460938 0,0.234375 0.171875,0.367187 0.175782,0.128907 0.632813,0.222657 L 70.5,14.544922 q 0.972656,0.195312 1.382812,0.59375 0.410157,0.398437 0.410157,1.132812 0,0.964844 -0.574219,1.4375 -0.570313,0.46875 -1.746094,0.46875 -0.554687,0 -1.113281,-0.105468 -0.558594,-0.105469 -1.117188,-0.3125 v -1.269532 q 0.558594,0.296875 1.078125,0.449219 0.523438,0.148438 1.007813,0.148438 0.492187,0 0.753906,-0.164063 0.261719,-0.164062 0.261719,-0.46875 0,-0.273437 -0.179688,-0.421875 -0.175781,-0.148437 -0.707031,-0.265625 L 69.375,15.638672 q -0.875,-0.1875 -1.28125,-0.597656 -0.402344,-0.410157 -0.402344,-1.105469 0,-0.871094 0.5625,-1.339844 0.5625,-0.46875 1.617188,-0.46875 0.480468,0 0.988281,0.07422 0.507812,0.07031 1.050781,0.214843 z"
     style="font-style:normal;font-variant:normal;font-weight:bold;font-stretch:normal;font-size:8px;line-height:6.65196848px;font-family:Sans;-inkscape-font-specification:'Sans, Bold';font-variant-ligatures:normal;font-variant-caps:normal;font-variant-numeric:normal;font-feature-settings:normal;text-align:center;writing-mode:lr-tb;text-anchor:middle"
     id="path916"
     inkscape:connector-curvature="0" /><path
     d="m 76.398437,12.232422 h 1.503907 v 5.832031 h -1.503907 z"
     style="font-style:normal;font-variant:normal;font-weight:bold;font-stretch:normal;font-size:8px;line-height:6.65196848px;font-family:Sans;-inkscape-font-specification:'Sans, Bold';font-variant-ligatures:normal;font-variant-caps:normal;font-variant-numeric:normal;font-feature-settings:normal;text-align:center;writing-mode:lr-tb;text-anchor:middle"
     id="path918"
     inkscape:connector-curvature="0" /><path
     d="m 79.375,12.232422 h 1.679687 l 2.121094,4 v -4 h 1.425781 v 5.832031 h -1.679687 l -2.121094,-4 v 4 H 79.375 Z"
     style="font-style:normal;font-variant:normal;font-weight:bold;font-stretch:normal;font-size:8px;line-height:6.65196848px;font-family:Sans;-inkscape-font-specification:'Sans, Bold';font-variant-ligatures:normal;font-variant-caps:normal;font-variant-numeric:normal;font-feature-settings:normal;text-align:center;writing-mode:lr-tb;text-anchor:middle"
     id="path920"
     inkscape:connector-curvature="0" /><path
     d="m 90.128906,12.416016 v 1.234375 q -0.480469,-0.214844 -0.9375,-0.324219 -0.457031,-0.109375 -0.863281,-0.109375 -0.539063,0 -0.796875,0.148437 -0.257813,0.148438 -0.257813,0.460938 0,0.234375 0.171875,0.367187 0.175782,0.128907 0.632813,0.222657 l 0.640625,0.128906 q 0.972656,0.195312 1.382812,0.59375 0.410157,0.398437 0.410157,1.132812 0,0.964844 -0.574219,1.4375 -0.570313,0.46875 -1.746094,0.46875 -0.554687,0 -1.113281,-0.105468 -0.558594,-0.105469 -1.117188,-0.3125 v -1.269532 q 0.558594,0.296875 1.078125,0.449219 0.523438,0.148438 1.007813,0.148438 0.492187,0 0.753906,-0.164063 0.261719,-0.164062 0.261719,-0.46875 0,-0.273437 -0.179688,-0.421875 -0.175781,-0.148437 -0.707031,-0.265625 L 87.59375,15.638672 q -0.875,-0.1875 -1.28125,-0.597656 -0.402344,-0.410157 -0.402344,-1.105469 0,-0.871094 0.5625,-1.339844 0.5625,-0.46875 1.617188,-0.46875 0.480468,0 0.988281,0.07422 0.507812,0.07031 1.050781,0.214843 z"
     style="font-style:normal;font-variant:normal;font-weight:bold;font-stretch:normal;font-size:8px;line-height:6.65196848px;font-family:Sans;-inkscape-font-specification:'Sans, Bold';font-variant-ligatures:normal;font-variant-caps:normal;font-variant-numeric:normal;font-feature-settings:normal;text-align:center;writing-mode:lr-tb;text-anchor:middle"
     id="path922"
     inkscape:connector-curvature="0" /><path
     d="m 91.832031,12.232422 h 1.503906 v 5.832031 h -1.503906 z"
     style="font-style:normal;font-variant:normal;font-weight:bold;font-stretch:normal;font-size:8px;line-height:6.65196848px;font-family:Sans;-inkscape-font-specification:'Sans, Bold';font-variant-ligatures:normal;font-variant-caps:normal;font-variant-numeric:normal;font-feature-settings:normal;text-align:center;writing-mode:lr-tb;text-anchor:middle"
     id="path924"
     inkscape:connector-curvature="0" /><path
     d="m 96.3125,13.369141 v 3.558593 h 0.539062 q 0.921875,0 1.40625,-0.457031 0.488282,-0.457031 0.488282,-1.328125 0,-0.867187 -0.484375,-1.320312 -0.484375,-0.453125 -1.410157,-0.453125 z m -1.503906,-1.136719 h 1.585937 q 1.328125,0 1.976563,0.191406 0.652343,0.1875 1.117187,0.640625 0.410156,0.394531 0.609379,0.910156 0.19922,0.515625 0.19922,1.167969 0,0.660156 -0.19922,1.179688 -0.199223,0.515625 -0.609379,0.910156 -0.46875,0.453125 -1.125,0.644531 -0.65625,0.1875 -1.96875,0.1875 h -1.585937 z"
     style="font-style:normal;font-variant:normal;font-weight:bold;font-stretch:normal;font-size:8px;line-height:6.65196848px;font-family:Sans;-inkscape-font-specification:'Sans, Bold';font-variant-ligatures:normal;font-variant-caps:normal;font-variant-numeric:normal;font-feature-settings:normal;text-align:center;writing-mode:lr-tb;text-anchor:middle"
     id="path926"
     inkscape:connector-curvature="0" /><path
     d="m 101.44922,12.232422 h 4.05859 v 1.136719 h -2.55468 v 1.085937 h 2.40234 v 1.136719 h -2.40234 v 1.335937 h 2.64062 v 1.136719 h -4.14453 z"
     style="font-style:normal;font-variant:normal;font-weight:bold;font-stretch:normal;font-size:8px;line-height:6.65196848px;font-family:Sans;-inkscape-font-specification:'Sans, Bold';font-variant-ligatures:normal;font-variant-caps:normal;font-variant-numeric:normal;font-feature-settings:normal;text-align:center;writing-mode:lr-tb;text-anchor:middle"
     id="path928"
     inkscape:connector-curvature="0" /></g></svg>