<?xml version="1.0" encoding="UTF-8" standalone="no"?>
<svg
   xmlns:dc="http://purl.org/dc/elements/1.1/"
   xmlns:cc="http://creativecommons.org/ns#"
   xmlns:rdf="http://www.w3.org/1999/02/22-rdf-syntax-ns#"
   xmlns:svg="http://www.w3.org/2000/svg"
   xmlns="http://www.w3.org/2000/svg"
   xmlns:sodipodi="http://sodipodi.sourceforge.net/DTD/sodipodi-0.dtd"
   xmlns:inkscape="http://www.inkscape.org/namespaces/inkscape"
   version="1.2"
   id="Layer_1"
   x="0px"
   y="0px"
   viewBox="0 0 99.999996 27.937659"
   xml:space="preserve"
   sodipodi:docname="quirkey_logo.svg"
   width="100"
   height="27.937658"
   inkscape:version="0.92.5 (2060ec1f9f, 2020-04-08)"><metadata
   id="metadata43"><rdf:RDF><cc:Work
       rdf:about=""><dc:format>image/svg+xml</dc:format><dc:type
         rdf:resource="http://purl.org/dc/dcmitype/StillImage" /><dc:title></dc:title></cc:Work></rdf:RDF></metadata><defs
   id="defs41" /><sodipodi:namedview
   pagecolor="#ffffff"
   bordercolor="#666666"
   borderopacity="1"
   objecttolerance="10"
   gridtolerance="10"
   guidetolerance="10"
   inkscape:pageopacity="0"
   inkscape:pageshadow="2"
   inkscape:window-width="1920"
   inkscape:window-height="1030"
   id="namedview39"
   showgrid="false"
   fit-margin-top="0"
   fit-margin-left="0"
   fit-margin-right="0"
   fit-margin-bottom="0"
   inkscape:zoom="156.16172"
   inkscape:cx="-1.3405748"
   inkscape:cy="1.6290073"
   inkscape:window-x="0"
   inkscape:window-y="26"
   inkscape:window-maximized="1"
   inkscape:current-layer="Layer_1" />


















<path
   inkscape:connector-curvature="0"
   id="path843"
   style="font-style:normal;font-variant:normal;font-weight:bold;font-stretch:normal;font-size:8px;line-height:125%;font-family:'Bitstream Vera Sans';-inkscape-font-specification:'Bitstream Vera Sans, Bold';font-variant-ligatures:normal;font-variant-caps:normal;font-variant-numeric:normal;font-feature-settings:normal;text-align:start;letter-spacing:0px;word-spacing:0px;writing-mode:lr-tb;text-anchor:start;fill:#000000;fill-opacity:1;stroke:none;stroke-width:1px;stroke-linecap:butt;stroke-linejoin:miter;stroke-opacity:1"
   d="m -12.978703,30.417292 h -0.117187 q -1.441406,0 -2.242188,-0.796875 -0.800781,-0.796875 -0.800781,-2.21875 0,-1.417969 0.796875,-2.222657 0.800781,-0.804687 2.203125,-0.804687 1.417969,0 2.207031,0.796875 0.792969,0.796875 0.792969,2.230469 0,0.984375 -0.421875,1.695312 -0.417969,0.710938 -1.207031,1.070313 l 1.175781,1.3125 h -1.433594 z m -0.160156,-4.953125 q -0.6875,0 -1.066406,0.507812 -0.378906,0.507813 -0.378906,1.429688 0,0.9375 0.371093,1.4375 0.371094,0.496093 1.074219,0.496093 0.691406,0 1.070313,-0.507812 0.378906,-0.507813 0.378906,-1.425781 0,-0.921875 -0.378906,-1.429688 -0.378907,-0.507812 -1.070313,-0.507812 z" /><path
   inkscape:connector-curvature="0"
   id="path845"
   style="font-style:normal;font-variant:normal;font-weight:bold;font-stretch:normal;font-size:8px;line-height:125%;font-family:'Bitstream Vera Sans';-inkscape-font-specification:'Bitstream Vera Sans, Bold';font-variant-ligatures:normal;font-variant-caps:normal;font-variant-numeric:normal;font-feature-settings:normal;text-align:start;letter-spacing:0px;word-spacing:0px;writing-mode:lr-tb;text-anchor:start;fill:#000000;fill-opacity:1;stroke:none;stroke-width:1px;stroke-linecap:butt;stroke-linejoin:miter;stroke-opacity:1"
   d="m -9.111515,28.608698 v -2.671875 h 1.40625 v 0.4375 q 0,0.355469 -0.00391,0.894531 -0.00391,0.535156 -0.00391,0.714844 0,0.527344 0.027344,0.761719 0.027344,0.230468 0.09375,0.335937 0.085937,0.136719 0.2226563,0.210938 0.140625,0.07422 0.3203125,0.07422 0.4375,0 0.6875,-0.335937 0.25,-0.335938 0.25,-0.933594 v -2.160156 h 1.3984375 v 4.375 H -6.111515 V 29.67901 q -0.3164063,0.382813 -0.671875,0.566407 -0.3515625,0.179687 -0.7773438,0.179687 -0.7578125,0 -1.15625,-0.464844 -0.3945312,-0.464843 -0.3945312,-1.351562 z" /><path
   style="font-style:normal;font-variant:normal;font-weight:bold;font-stretch:normal;font-size:8px;line-height:125%;font-family:'Bitstream Vera Sans';-inkscape-font-specification:'Bitstream Vera Sans, Bold';font-variant-ligatures:normal;font-variant-caps:normal;font-variant-numeric:normal;font-feature-settings:normal;text-align:start;letter-spacing:0px;word-spacing:0px;writing-mode:lr-tb;text-anchor:start;fill:#000000;fill-opacity:1;stroke:none;stroke-width:1px;stroke-linecap:butt;stroke-linejoin:miter;stroke-opacity:1"
   d="M -3.3693275,25.936823 H -1.97089 v 4.375 h -1.3984375 z"
   id="path886" /><path
   style="font-style:normal;font-variant:normal;font-weight:bold;font-stretch:normal;font-size:8px;line-height:125%;font-family:'Bitstream Vera Sans';-inkscape-font-specification:'Bitstream Vera Sans, Bold';font-variant-ligatures:normal;font-variant-caps:normal;font-variant-numeric:normal;font-feature-settings:normal;text-align:start;letter-spacing:0px;word-spacing:0px;writing-mode:lr-tb;text-anchor:start;fill:#000000;fill-opacity:1;stroke:none;stroke-width:1px;stroke-linecap:butt;stroke-linejoin:miter;stroke-opacity:1"
   d="M -3.3693275,23.660622 H -1.97089 v 1.140625 h -1.3984375 z"
   id="path847"
   inkscape:connector-curvature="0" /><path
   inkscape:connector-curvature="0"
   id="path849"
   style="font-style:normal;font-variant:normal;font-weight:bold;font-stretch:normal;font-size:8px;line-height:125%;font-family:'Bitstream Vera Sans';-inkscape-font-specification:'Bitstream Vera Sans, Bold';font-variant-ligatures:normal;font-variant-caps:normal;font-variant-numeric:normal;font-feature-settings:normal;text-align:start;letter-spacing:0px;word-spacing:0px;writing-mode:lr-tb;text-anchor:start;fill:#000000;fill-opacity:1;stroke:none;stroke-width:1px;stroke-linecap:butt;stroke-linejoin:miter;stroke-opacity:1"
   d="m 2.62286,27.128229 q -0.1835938,-0.08594 -0.3671875,-0.125 -0.1796875,-0.04297 -0.3632813,-0.04297 -0.5390625,0 -0.8320312,0.347657 -0.28906255,0.34375 -0.28906255,0.988281 v 2.015625 h -1.3984375 v -4.375 h 1.3984375 v 0.71875 q 0.26953125,-0.429688 0.61718755,-0.625 0.3515625,-0.199219 0.8398437,-0.199219 0.070312,0 0.1523438,0.0078 0.082031,0.0039 0.2382812,0.02344 z" /><path
   inkscape:connector-curvature="0"
   id="path851"
   style="font-style:normal;font-variant:normal;font-weight:bold;font-stretch:normal;font-size:8px;line-height:125%;font-family:'Bitstream Vera Sans';-inkscape-font-specification:'Bitstream Vera Sans, Bold';font-variant-ligatures:normal;font-variant-caps:normal;font-variant-numeric:normal;font-feature-settings:normal;text-align:start;letter-spacing:0px;word-spacing:0px;writing-mode:lr-tb;text-anchor:start;fill:#000000;fill-opacity:1;stroke:none;stroke-width:1px;stroke-linecap:butt;stroke-linejoin:miter;stroke-opacity:1"
   d="M 3.3181725,24.233698 H 4.71661 v 3.308594 l 1.609375,-1.605469 h 1.625 l -2.1367188,2.007812 2.3046875,2.367188 H 6.4236412 L 4.71661,28.487604 v 1.824219 H 3.3181725 Z" /><path
   inkscape:connector-curvature="0"
   id="path853"
   style="font-style:normal;font-variant:normal;font-weight:bold;font-stretch:normal;font-size:8px;line-height:125%;font-family:'Bitstream Vera Sans';-inkscape-font-specification:'Bitstream Vera Sans, Bold';font-variant-ligatures:normal;font-variant-caps:normal;font-variant-numeric:normal;font-feature-settings:normal;text-align:start;letter-spacing:0px;word-spacing:0px;writing-mode:lr-tb;text-anchor:start;fill:#000000;fill-opacity:1;stroke:none;stroke-width:1px;stroke-linecap:butt;stroke-linejoin:miter;stroke-opacity:1"
   d="m 12.790829,28.112604 v 0.398438 H 9.5212975 q 0.050781,0.492187 0.3554687,0.738281 0.3046878,0.246094 0.8515628,0.246094 0.441406,0 0.902343,-0.128907 0.464844,-0.132812 0.953125,-0.398437 v 1.078125 q -0.496093,0.1875 -0.992187,0.28125 -0.496094,0.09766 -0.992188,0.09766 -1.1874995,0 -1.8476558,-0.601562 -0.65625,-0.605469 -0.65625,-1.695313 0,-1.070312 0.6445313,-1.683594 0.6484375,-0.613281 1.7812495,-0.613281 1.03125,0 1.648438,0.621094 0.621094,0.621094 0.621094,1.660156 z m -1.4375,-0.464844 q 0,-0.398437 -0.234375,-0.640625 -0.230469,-0.246093 -0.605469,-0.246093 -0.40625,0 -0.6601563,0.230468 -0.2539062,0.226563 -0.3164062,0.65625 z" /><path
   inkscape:connector-curvature="0"
   id="path855"
   style="font-style:normal;font-variant:normal;font-weight:bold;font-stretch:normal;font-size:8px;line-height:125%;font-family:'Bitstream Vera Sans';-inkscape-font-specification:'Bitstream Vera Sans, Bold';font-variant-ligatures:normal;font-variant-caps:normal;font-variant-numeric:normal;font-feature-settings:normal;text-align:start;letter-spacing:0px;word-spacing:0px;writing-mode:lr-tb;text-anchor:start;fill:#000000;fill-opacity:1;stroke:none;stroke-width:1px;stroke-linecap:butt;stroke-linejoin:miter;stroke-opacity:1"
   d="m 13.275204,25.936823 h 1.398437 l 1.175781,2.96875 1,-2.96875 h 1.398438 l -1.839844,4.789062 q -0.277344,0.730469 -0.648437,1.019532 -0.367188,0.292968 -0.972657,0.292968 h -0.808593 v -0.917968 h 0.4375 q 0.355468,0 0.515625,-0.113282 0.164062,-0.113281 0.253906,-0.40625 l 0.03906,-0.121093 z" /><path
   id="path888"
   d="m -6.1061377,23.660622 h 1.3984375 v 1.140625 h -1.3984375 z"
   style="font-style:normal;font-variant:normal;font-weight:bold;font-stretch:normal;font-size:8px;line-height:125%;font-family:'Bitstream Vera Sans';-inkscape-font-specification:'Bitstream Vera Sans, Bold';font-variant-ligatures:normal;font-variant-caps:normal;font-variant-numeric:normal;font-feature-settings:normal;text-align:start;letter-spacing:0px;word-spacing:0px;writing-mode:lr-tb;text-anchor:start;fill:#000000;fill-opacity:1;stroke:none;stroke-width:1px;stroke-linecap:butt;stroke-linejoin:miter;stroke-opacity:1"
   inkscape:connector-curvature="0" /><path
   inkscape:connector-curvature="0"
   style="font-style:normal;font-variant:normal;font-weight:bold;font-stretch:normal;font-size:8px;line-height:125%;font-family:'Bitstream Vera Sans';-inkscape-font-specification:'Bitstream Vera Sans, Bold';font-variant-ligatures:normal;font-variant-caps:normal;font-variant-numeric:normal;font-feature-settings:normal;text-align:start;letter-spacing:0px;word-spacing:0px;writing-mode:lr-tb;text-anchor:start;fill:#000000;fill-opacity:1;stroke:none;stroke-width:1px;stroke-linecap:butt;stroke-linejoin:miter;stroke-opacity:1"
   d="m -9.0885516,24.233698 h 1.3984378 v 1.140625 h -1.3984378 z"
   id="path890" /><path
   id="path898"
   d="m -10.515476,31.455952 h 1.3984368 v 1.140625 h -1.3984368 z"
   style="font-style:normal;font-variant:normal;font-weight:bold;font-stretch:normal;font-size:8px;line-height:125%;font-family:'Bitstream Vera Sans';-inkscape-font-specification:'Bitstream Vera Sans, Bold';font-variant-ligatures:normal;font-variant-caps:normal;font-variant-numeric:normal;font-feature-settings:normal;text-align:start;letter-spacing:0px;word-spacing:0px;writing-mode:lr-tb;text-anchor:start;fill:#000000;fill-opacity:1;stroke:none;stroke-width:1px;stroke-linecap:butt;stroke-linejoin:miter;stroke-opacity:1"
   inkscape:connector-curvature="0" /><path
   inkscape:connector-curvature="0"
   style="font-style:normal;font-variant:normal;font-weight:bold;font-stretch:normal;font-size:8px;line-height:125%;font-family:'Bitstream Vera Sans';-inkscape-font-specification:'Bitstream Vera Sans, Bold';font-variant-ligatures:normal;font-variant-caps:normal;font-variant-numeric:normal;font-feature-settings:normal;text-align:start;letter-spacing:0px;word-spacing:0px;writing-mode:lr-tb;text-anchor:start;fill:#000000;fill-opacity:1;stroke:none;stroke-width:1px;stroke-linecap:butt;stroke-linejoin:miter;stroke-opacity:1"
   d="m -8.7799178,31.455952 h 1.3984368 v 1.140625 h -1.3984368 z"
   id="path900" /><path
   id="path824"
   d="m -0.63640738,23.660622 h 1.3984381 v 1.140625 h -1.3984381 z"
   style="font-style:normal;font-variant:normal;font-weight:bold;font-stretch:normal;font-size:8px;line-height:125%;font-family:'Bitstream Vera Sans';-inkscape-font-specification:'Bitstream Vera Sans, Bold';font-variant-ligatures:normal;font-variant-caps:normal;font-variant-numeric:normal;font-feature-settings:normal;text-align:start;letter-spacing:0px;word-spacing:0px;writing-mode:lr-tb;text-anchor:start;fill:#000000;fill-opacity:1;stroke:none;stroke-width:1px;stroke-linecap:butt;stroke-linejoin:miter;stroke-opacity:1"
   inkscape:connector-curvature="0" /></svg>